<svg xmlns="http://www.w3.org/2000/svg" width="627" height="282" viewBox="0 0 627 282" role="img" aria-label="EnXI logo">
<rect width="100%" height="100%" fill="white"/>
<path d="M 572 235 L 572 252 L 573 253 L 576 252 L 576 245 L 577 244 L 581 250 L 585 245 L 586 246 L 586 252 L 589 253 L 590 252 L 590 235 L 586 235 L 581 244 L 579 242 L 577 236 Z " fill="#182948" fill-rule="evenodd"/>
<path d="M 556 235 L 556 252 L 558 253 L 559 248 L 562 247 L 565 252 L 569 253 L 570 252 L 566 246 L 569 243 L 569 238 L 566 235 Z M 559 239 L 564 238 L 566 241 L 564 243 L 560 243 Z " fill="#182948" fill-rule="evenodd"/>
<path d="M 541 235 L 537 239 L 536 242 L 537 248 L 539 251 L 543 253 L 549 252 L 553 247 L 553 241 L 550 236 Z M 543 238 L 546 238 L 549 241 L 549 247 L 547 249 L 543 249 L 540 246 L 540 241 Z " fill="#182948" fill-rule="evenodd"/>
<path d="M 535 235 L 523 235 L 523 252 L 525 253 L 527 251 L 526 246 L 527 245 L 533 245 L 534 244 L 533 242 L 528 242 L 527 239 L 528 238 L 534 238 Z " fill="#182948" fill-rule="evenodd"/>
<path d="M 506 235 L 507 238 L 512 239 L 512 252 L 515 252 L 516 239 L 521 238 L 521 235 Z " fill="#182948" fill-rule="evenodd"/>
<path d="M 477 235 L 477 252 L 478 253 L 488 253 L 489 252 L 493 253 L 496 248 L 500 248 L 502 250 L 502 252 L 504 253 L 506 252 L 500 235 L 496 235 L 490 250 L 480 248 L 480 235 Z M 498 240 L 500 243 L 499 246 L 496 245 Z " fill="#182948" fill-rule="evenodd"/>
<path d="M 471 235 L 461 235 L 461 252 L 464 253 L 465 252 L 465 247 L 466 246 L 468 247 L 472 246 L 474 244 L 474 238 Z M 465 239 L 469 238 L 471 240 L 471 242 L 466 243 Z " fill="#182948" fill-rule="evenodd"/>
<path d="M 419 235 L 419 252 L 420 253 L 423 252 L 423 245 L 424 244 L 433 253 L 434 252 L 434 235 L 430 236 L 431 237 L 429 244 L 422 235 Z " fill="#182948" fill-rule="evenodd"/>
<path d="M 412 235 L 412 252 L 414 253 L 415 252 L 415 235 Z " fill="#182948" fill-rule="evenodd"/>
<path d="M 393 235 L 393 252 L 397 252 L 397 244 L 398 243 L 402 249 L 407 253 L 408 252 L 408 235 L 404 236 L 404 243 L 403 244 L 396 235 Z " fill="#182948" fill-rule="evenodd"/>
<path d="M 374 235 L 374 252 L 375 253 L 378 252 L 378 244 L 379 243 L 384 250 L 388 253 L 389 252 L 389 235 L 386 235 L 386 244 L 385 245 L 377 235 Z " fill="#182948" fill-rule="evenodd"/>
<path d="M 343 235 L 343 252 L 348 252 L 349 253 L 356 252 L 358 253 L 360 252 L 360 250 L 362 248 L 366 248 L 368 252 L 370 253 L 372 252 L 366 235 L 362 235 L 356 251 L 355 249 L 347 249 L 346 248 L 346 235 Z M 364 240 L 366 244 L 365 246 L 362 245 Z " fill="#182948" fill-rule="evenodd"/>
<path d="M 337 235 L 328 235 L 327 236 L 327 251 L 328 252 L 331 252 L 331 247 L 332 246 L 334 247 L 338 246 L 340 244 L 341 240 L 340 237 Z M 331 239 L 335 238 L 337 240 L 337 242 L 332 243 Z " fill="#182948" fill-rule="evenodd"/>
<path d="M 306 235 L 306 252 L 307 253 L 316 253 L 319 251 L 318 249 L 311 249 L 310 248 L 311 245 L 317 245 L 317 242 L 311 242 L 310 239 L 311 238 L 318 238 L 318 235 Z " fill="#182948" fill-rule="evenodd"/>
<path d="M 294 235 L 289 239 L 288 245 L 289 248 L 293 252 L 299 253 L 303 251 L 304 249 L 302 247 L 299 249 L 295 249 L 292 246 L 292 241 L 295 238 L 299 238 L 302 240 L 303 237 L 300 235 Z " fill="#182948" fill-rule="evenodd"/>
<path d="M 273 235 L 273 252 L 274 253 L 276 252 L 277 247 L 279 247 L 283 252 L 287 252 L 283 246 L 286 243 L 286 238 L 283 235 Z M 276 242 L 278 238 L 281 238 L 283 240 L 281 243 Z " fill="#182948" fill-rule="evenodd"/>
<path d="M 254 235 L 255 249 L 260 253 L 266 252 L 269 249 L 270 246 L 270 235 L 266 235 L 266 247 L 264 249 L 260 249 L 258 247 L 258 235 Z " fill="#182948" fill-rule="evenodd"/>
<path d="M 240 235 L 235 241 L 235 246 L 239 252 L 245 253 L 251 249 L 252 241 L 247 235 Z M 242 238 L 245 238 L 248 241 L 248 247 L 246 249 L 241 249 L 239 246 L 239 241 Z " fill="#182948" fill-rule="evenodd"/>
<path d="M 223 235 L 220 239 L 221 243 L 224 245 L 229 246 L 230 248 L 229 249 L 221 248 L 220 251 L 225 253 L 231 252 L 233 250 L 233 245 L 231 243 L 225 241 L 224 239 L 225 238 L 232 239 L 233 237 L 230 235 Z " fill="#182948" fill-rule="evenodd"/>
<path d="M 206 235 L 206 252 L 207 253 L 215 253 L 216 252 L 217 253 L 218 249 L 210 249 L 209 248 L 210 245 L 216 245 L 217 242 L 210 242 L 209 239 L 210 238 L 217 238 L 218 235 Z " fill="#182948" fill-rule="evenodd"/>
<path d="M 190 235 L 189 236 L 189 252 L 192 253 L 194 247 L 196 247 L 199 252 L 201 253 L 203 252 L 200 247 L 203 242 L 201 236 L 199 235 Z M 193 239 L 198 238 L 199 242 L 194 243 Z " fill="#182948" fill-rule="evenodd"/>
<path d="M 169 235 L 168 236 L 168 252 L 170 253 L 180 253 L 181 252 L 180 249 L 173 249 L 172 248 L 173 245 L 179 245 L 180 243 L 179 242 L 173 242 L 172 239 L 173 238 L 180 238 L 181 236 L 180 235 Z " fill="#182948" fill-rule="evenodd"/>
<path d="M 156 235 L 153 238 L 153 242 L 154 244 L 159 245 L 162 248 L 161 249 L 153 248 L 152 251 L 158 253 L 164 252 L 166 249 L 165 244 L 157 241 L 156 239 L 157 238 L 164 239 L 165 236 Z " fill="#182948" fill-rule="evenodd"/>
<path d="M 146 235 L 146 252 L 149 253 L 150 252 L 150 235 Z " fill="#182948" fill-rule="evenodd"/>
<path d="M 130 235 L 130 252 L 131 253 L 133 252 L 134 247 L 136 247 L 139 252 L 143 252 L 140 246 L 143 243 L 142 237 L 140 235 Z M 133 239 L 138 238 L 139 242 L 134 243 Z " fill="#182948" fill-rule="evenodd"/>
<path d="M 124 235 L 114 235 L 114 252 L 115 253 L 117 253 L 119 247 L 126 245 L 127 238 Z M 117 239 L 122 238 L 123 242 L 119 244 Z " fill="#182948" fill-rule="evenodd"/>
<path d="M 97 235 L 97 252 L 100 253 L 101 248 L 104 247 L 108 253 L 111 253 L 108 246 L 111 241 L 109 236 L 107 235 Z M 101 239 L 105 238 L 107 240 L 107 242 L 102 243 Z " fill="#182948" fill-rule="evenodd"/>
<path d="M 66 235 L 66 238 L 71 239 L 71 252 L 72 253 L 75 252 L 75 239 L 81 237 L 83 238 L 83 252 L 91 252 L 92 253 L 95 252 L 94 249 L 87 249 L 86 248 L 87 245 L 93 245 L 93 242 L 87 242 L 86 239 L 87 238 L 94 238 L 95 235 L 83 235 L 82 236 L 81 235 Z " fill="#182948" fill-rule="evenodd"/>
<path d="M 49 235 L 49 252 L 50 253 L 52 252 L 52 244 L 53 243 L 60 252 L 63 253 L 64 252 L 64 235 L 60 235 L 60 243 L 59 244 L 52 235 Z " fill="#182948" fill-rule="evenodd"/>
<path d="M 34 235 L 33 236 L 34 237 L 34 252 L 35 253 L 46 252 L 45 249 L 38 249 L 37 248 L 38 245 L 44 245 L 45 244 L 44 242 L 38 242 L 37 239 L 38 238 L 45 238 L 46 236 L 45 235 Z " fill="#182948" fill-rule="evenodd"/>
<path d="M 440 236 L 437 240 L 438 249 L 441 252 L 444 253 L 453 252 L 453 244 L 452 243 L 447 243 L 446 244 L 449 247 L 448 249 L 443 249 L 440 244 L 441 241 L 444 238 L 447 238 L 449 240 L 451 240 L 452 238 L 449 235 L 446 234 Z " fill="#182948" fill-rule="evenodd"/>
<path d="M 213 97 L 208 107 L 205 121 L 205 200 L 206 202 L 208 203 L 234 203 L 236 201 L 236 129 L 237 128 L 237 122 L 242 114 L 247 111 L 256 109 L 296 109 L 297 110 L 303 110 L 309 113 L 313 117 L 316 127 L 316 200 L 319 203 L 345 203 L 347 201 L 347 120 L 343 103 L 340 98 L 332 90 L 319 84 L 306 83 L 305 82 L 247 82 L 246 83 L 234 84 L 225 87 Z " fill="#182948" fill-rule="evenodd"/>
<path d="M 561 45 L 558 48 L 558 200 L 561 203 L 588 203 L 590 201 L 590 47 L 588 45 Z " fill="#182948" fill-rule="evenodd"/>
<path d="M 365 45 L 366 48 L 411 100 L 413 104 L 426 118 L 429 123 L 411 145 L 396 161 L 362 203 L 401 203 L 405 200 L 412 190 L 449 146 L 451 147 L 496 202 L 498 203 L 537 203 L 530 193 L 470 122 L 517 66 L 534 47 L 534 45 L 497 45 L 495 46 L 451 99 L 445 94 L 424 67 L 417 60 L 408 48 L 404 45 Z " fill="#182948" fill-rule="evenodd"/>
<path d="M 46 56 L 42 60 L 37 69 L 33 88 L 33 160 L 34 161 L 35 172 L 41 186 L 53 197 L 61 200 L 76 203 L 179 203 L 181 201 L 181 175 L 180 174 L 87 174 L 86 173 L 79 173 L 74 171 L 69 166 L 66 158 L 66 137 L 67 136 L 173 136 L 176 134 L 176 112 L 173 109 L 67 109 L 66 108 L 66 90 L 68 83 L 74 77 L 83 74 L 178 74 L 181 71 L 181 48 L 180 46 L 178 45 L 77 45 L 57 49 Z " fill="#182948" fill-rule="evenodd"/>
</svg>